<?xml version="1.0" encoding="utf-8"?><!DOCTYPE svg PUBLIC "-//W3C//DTD SVG 1.1//EN" "http://www.w3.org/Graphics/SVG/1.1/DTD/svg11.dtd"><svg version="1.1" xmlns="http://www.w3.org/2000/svg" xmlns:xlink="http://www.w3.org/1999/xlink" width="24" height="24" viewBox="0 0 24 24" data-tags="hash"><g fill="#444" transform="scale(0.0234375 0.0234375)"><path d="M606.549 426.667l-18.944 170.667h-170.155l18.944-170.667zM640.256 123.307l-24.235 218.027h-170.155l23.168-208.64c2.603-23.424-14.293-44.501-37.675-47.104s-44.501 14.293-47.104 37.717l-24.235 218.027h-189.355c-23.552 0-42.667 19.115-42.667 42.667s19.115 42.667 42.667 42.667h179.883l-18.944 170.667h-160.939c-23.552 0-42.667 19.115-42.667 42.667s19.115 42.667 42.667 42.667h151.424l-23.168 208.64c-2.603 23.424 14.293 44.501 37.675 47.104s44.501-14.293 47.104-37.675l24.277-218.069h170.155l-23.168 208.64c-2.603 23.424 14.293 44.501 37.675 47.104s44.501-14.293 47.104-37.675l24.235-218.069h189.355c23.552 0 42.667-19.115 42.667-42.667s-19.115-42.667-42.667-42.667h-179.883l18.944-170.667h160.939c23.552 0 42.667-19.115 42.667-42.667s-19.115-42.667-42.667-42.667h-151.424l23.168-208.64c2.603-23.424-14.293-44.501-37.675-47.104s-44.501 14.293-47.104 37.675z" /></g></svg>